<?xml version="1.0" encoding="UTF-8" standalone="no"?>
<!DOCTYPE svg PUBLIC "-//W3C//DTD SVG 1.1//EN" "http://www.w3.org/Graphics/SVG/1.1/DTD/svg11.dtd">
<svg width="100%" height="100%" viewBox="0 0 282 282" version="1.1" xmlns="http://www.w3.org/2000/svg" xmlns:xlink="http://www.w3.org/1999/xlink" xml:space="preserve" xmlns:serif="http://www.serif.com/" style="fill-rule:evenodd;clip-rule:evenodd;stroke-linejoin:round;stroke-miterlimit:2;">
    <g transform="matrix(1,0,0,1,-910.037,-825.46)">
        <g transform="matrix(0.669717,0,0,0.669717,241.162,143.602)">
            <circle cx="1208.85" cy="1228.24" r="210.113" style="fill:url(#_Linear1);"/>
        </g>
        <g transform="matrix(-0.162958,0.277167,-0.277167,-0.162958,1640.37,634.547)">
            <g transform="matrix(1,0,0,1,21.9109,0)">
                <path d="M1997.88,1001.36L1997.88,1071.71C1997.88,1091.13 1982.12,1106.89 1962.7,1106.89L1653.27,1106.89C1633.85,1106.89 1618.09,1091.13 1618.09,1071.71L1618.09,1001.36C1618.09,981.939 1633.85,966.176 1653.27,966.176L1962.7,966.176C1982.12,966.176 1997.88,981.939 1997.88,1001.36Z" style="fill:white;"/>
            </g>
            <g transform="matrix(1,0,0,1,-309.674,0)">
                <rect x="2019.79" y="966.176" width="309.674" height="140.716" style="fill:white;"/>
            </g>
            <g transform="matrix(4.56876e-17,0.746767,-0.732572,4.48978e-17,2891.64,-598.86)">
                <path d="M2189.96,1005.8C2236.99,1035.36 2284.18,1164.2 2284.18,1164.2L2095.75,1164.2C2095.75,1164.2 2140.98,1035.36 2189.96,1005.8Z" style="fill:white;"/>
            </g>
        </g>
        <g transform="matrix(0.847273,0,0,0.816738,158.264,397.286)">
            <path d="M1087.97,546.312L1096.33,572.031L1123.37,572.031L1101.5,587.927L1109.85,613.646L1087.97,597.751L1066.1,613.646L1074.45,587.927L1052.58,572.031L1079.62,572.031L1087.97,546.312Z" style="fill:white;"/>
        </g>
        <g transform="matrix(0.749725,0,0,0.722706,312.012,493.741)">
            <path d="M1087.97,546.312L1096.33,572.031L1123.37,572.031L1101.5,587.927L1109.85,613.646L1087.97,597.751L1066.1,613.646L1074.45,587.927L1052.58,572.031L1079.62,572.031L1087.97,546.312Z" style="fill:white;"/>
        </g>
        <g transform="matrix(0.735167,0,0,0.708673,225.192,501.408)">
            <path d="M1087.97,546.312L1096.33,572.031L1123.37,572.031L1101.5,587.927L1109.85,613.646L1087.97,597.751L1066.1,613.646L1074.45,587.927L1052.58,572.031L1079.62,572.031L1087.97,546.312Z" style="fill:white;"/>
        </g>
    </g>
    <defs>
        <linearGradient id="_Linear1" x1="0" y1="0" x2="1" y2="0" gradientUnits="userSpaceOnUse" gradientTransform="matrix(322.804,266.095,-266.095,322.804,1043.95,1092.06)"><stop offset="0" style="stop-color:rgb(147,189,50);stop-opacity:1"/><stop offset="1" style="stop-color:rgb(0,144,197);stop-opacity:1"/></linearGradient>
    </defs>
</svg>
